<svg xmlns="http://www.w3.org/2000/svg" width="1500" height="860" viewBox="0 0 1500 860">
  <defs>
    <style>
      .title { font: 700 28px Arial, sans-serif; fill: #143b6b; }
      .actor { font: 18px Arial, sans-serif; fill: #111827; }
      .label { font: 16px Arial, sans-serif; fill: #111827; }
      .uc { fill: #dbeafe; stroke: #6b8fb8; stroke-width: 2; }
      .line { stroke: #111827; stroke-width: 2; fill: none; }
      .dash { stroke: #374151; stroke-width: 1.8; fill: none; stroke-dasharray: 6 5; }
    </style>
    <marker id="a" markerWidth="12" markerHeight="12" refX="10" refY="6" orient="auto"><path d="M0,0 L12,6 L0,12 z" fill="#111827"/></marker>
    <marker id="d" markerWidth="12" markerHeight="12" refX="10" refY="6" orient="auto"><path d="M0,0 L12,6 L0,12 z" fill="#374151"/></marker>
  </defs>
  <text x="40" y="48" class="title">Sprint 3 - Diagramme de cas d'utilisation</text>

  <text x="28" y="330" class="actor">admin</text>
  <circle cx="70" cy="280" r="14" class="line"/><line x1="70" y1="294" x2="70" y2="342" class="line"/><line x1="48" y1="312" x2="92" y2="312" class="line"/><line x1="70" y1="342" x2="52" y2="372" class="line"/><line x1="70" y1="342" x2="88" y2="372" class="line"/>

  <rect x="480" y="90" rx="35" ry="35" width="360" height="70" class="uc"/><text x="660" y="132" text-anchor="middle" class="label">Interagir avec le chat admin</text>
  <rect x="500" y="190" rx="35" ry="35" width="320" height="70" class="uc"/><text x="660" y="232" text-anchor="middle" class="label">Analyser une demande</text>
  <rect x="510" y="320" rx="35" ry="35" width="300" height="70" class="uc"/><text x="660" y="362" text-anchor="middle" class="label">Executer une inspection</text>
  <rect x="520" y="430" rx="35" ry="35" width="280" height="70" class="uc"/><text x="660" y="472" text-anchor="middle" class="label">Lancer une mutation</text>
  <rect x="500" y="540" rx="35" ry="35" width="320" height="70" class="uc"/><text x="660" y="582" text-anchor="middle" class="label">Declencher un workflow multi-etapes</text>
  <rect x="180" y="610" rx="35" ry="35" width="340" height="70" class="uc"/><text x="350" y="652" text-anchor="middle" class="label">Consulter le graphe et les outils</text>
  <rect x="200" y="720" rx="35" ry="35" width="300" height="70" class="uc"/><text x="350" y="762" text-anchor="middle" class="label">Ajuster les parametres RAG</text>
  <rect x="1070" y="160" rx="35" ry="35" width="240" height="70" class="uc"/><text x="1190" y="202" text-anchor="middle" class="label">S'authentifier</text>
  <rect x="1030" y="430" rx="35" ry="35" width="320" height="70" class="uc"/><text x="1190" y="472" text-anchor="middle" class="label">Appliquer les controles de securite</text>

  <path d="M92 312 L480 125" class="line" marker-end="url(#a)"/>
  <path d="M92 312 L510 355" class="line" marker-end="url(#a)"/>
  <path d="M92 312 L520 465" class="line" marker-end="url(#a)"/>
  <path d="M92 312 L500 575" class="line" marker-end="url(#a)"/>

  <path d="M840 125 L1190 125 L1190 160" class="dash" marker-end="url(#d)"/><text x="1010" y="115" class="label">&lt;&lt;include&gt;&gt;</text>
  <path d="M660 160 L660 190" class="dash" marker-end="url(#d)"/><text x="680" y="180" class="label">&lt;&lt;include&gt;&gt;</text>
  <path d="M810 355 L1120 355 L1120 230" class="dash" marker-end="url(#d)"/><text x="940" y="345" class="label">&lt;&lt;include&gt;&gt;</text>
  <path d="M800 465 L1030 465" class="dash" marker-end="url(#d)"/><text x="895" y="455" class="label">&lt;&lt;include&gt;&gt;</text>
  <path d="M820 575 L1100 575 L1100 500" class="dash" marker-end="url(#d)"/><text x="950" y="565" class="label">&lt;&lt;include&gt;&gt;</text>
  <path d="M520 645 L620 160" class="dash" marker-end="url(#d)"/><text x="475" y="430" class="label">&lt;&lt;extend&gt;&gt;</text>
  <path d="M500 750 L650 160" class="dash" marker-end="url(#d)"/><text x="470" y="560" class="label">&lt;&lt;extend&gt;&gt;</text>
</svg>
